<?xml version="1.0" encoding="iso-8859-1"?>
<!-- Uploaded to: SVG Repo, www.svgrepo.com, Generator: SVG Repo Mixer Tools -->
<svg height="800px" width="800px" version="1.1" id="Layer_1" xmlns="http://www.w3.org/2000/svg" xmlns:xlink="http://www.w3.org/1999/xlink" 
	 viewBox="0 0 512 512" xml:space="preserve">
<circle style="fill:#FFFCE6;" cx="255.997" cy="256.02" r="213.759"/>
<circle style="fill:#FFF8C1;" cx="255.997" cy="256.02" r="171.007"/>
<circle style="fill:#FFF082;" cx="255.997" cy="256.02" r="128.255"/>
<circle style="fill:#FFFCE6;" cx="255.997" cy="256.02" r="68.403"/>
<circle style="fill:#FFFFFF;" cx="255.997" cy="256.02" r="25.651"/>
<path style="fill:#59D8FF;" d="M367.226,65.252C319.858,21.33,253.228-0.706,184.706,11.376
	C68.473,31.872-9.138,142.711,11.356,258.944c11.15,63.232,49.067,114.983,100.013,145.778l95.763-101.747l7.37-117.939
	l95.825-14.742L367.226,65.252z"/>
<path style="fill:#00C3F0;" d="M210.36,218.897c-9.961-6.975-21.655-10.662-33.813-10.662c-3.422,0-6.867,0.301-10.239,0.896
	l-29.336,5.173l1.456-0.257c6.082-1.072,11.439-4.642,14.773-9.843l44.133-68.866l4.574-0.806
	c10.73-1.893,19.501-9.498,22.894-19.85l1.401-4.278c3.578-10.918,0.526-22.418-7.158-30.051c5.046-4.99,7.517-12.254,6.229-19.562
	l-1.614-9.15c-1.019-5.775-4.288-10.908-9.091-14.272c-3.742-2.62-8.174-3.998-12.681-3.998c-1.277,0-2.561,0.111-3.839,0.336
	l-52.693,9.291c-2.378,0.42-4.671,1.225-6.789,2.386l-13.433,7.365c-3.543-2.352-7.766-3.692-12.199-3.693
	c-1.275,0-2.565,0.111-3.865,0.339l-2.783,0.491c1.566-3.677,3.119-7.362,4.884-10.938c-7.721,4.673-15.012,9.907-22.015,15.462
	c-0.182,0.078-0.374,0.134-0.556,0.213c-1.013,0.808-1.969,1.675-2.964,2.502c-0.354,0.294-0.701,0.595-1.055,0.891
	c-0.999,0.84-1.94,1.738-2.907,2.608c-0.021-0.029-0.044-0.061-0.065-0.09c-54.658,47.602-83.755,121.829-70.253,198.41
	c11.15,63.232,49.067,114.983,100.013,145.778l95.763-101.747l5.17-82.718L210.36,218.897z"/>
<g>
	<path style="fill:#B4FF87;" d="M82.956,229.561l20.085,0.46l-1.215-9.519c-2.12-12.024,5.908-23.49,17.932-25.61l14.83-2.615
		l47.779-74.555c1.121-1.601,2.832-2.691,4.757-3.03l10.946-1.93c2.677-0.472,4.877-2.38,5.723-4.962l1.4-4.276
		c1.184-3.614-0.576-7.535-4.062-9.052l-19.651-8.548c-4.988-2.17-5.02-9.233-0.053-11.449l22.073-9.845l-1.613-9.15l-52.693,9.291
		l-34.117,18.704l-2.17-12.305l-8.802,1.552c-7.699,1.357-14.543,5.718-19.028,12.122l-3.843,5.489
		c-2.334,3.334-6.929,4.145-10.263,1.809l-8.625-6.039l-5.413-0.221c-19.488,23.658-33.844,51.395-41.779,81.378l19.936,36.816
		c3.809,7.034,11.69,10.841,19.567,9.452l5.111-0.901l5.935,8.003C69.769,226.109,76.135,229.405,82.956,229.561z"/>
	<path style="fill:#B4FF87;" d="M210.685,246.113l-13.005-9.107c-8.005-5.605-17.909-7.8-27.533-6.104l-30.722,5.417h0.001
		l-4.309,29.065l3.228,18.301c1.014,5.761,4.683,10.707,9.901,13.35l24.865,12.599c5.218,2.644,8.885,7.59,9.902,13.35l0.835,4.733
		l23.286-24.74L210.685,246.113z"/>
</g>
<g>
	<path style="fill:#9BF57D;" d="M82.956,229.561l20.085,0.46l-1.215-9.519c-0.716-4.059-0.195-8.021,1.167-11.616
		c-4.616-12.253-8.219-25.078-10.575-38.442c-5.814-32.977-3.582-65.461,5.049-95.624c-4.924,2.151-9.253,5.548-12.387,10.023
		l-3.843,5.489c-2.334,3.334-6.929,4.145-10.263,1.809l-8.625-6.039l-5.245-0.214c-0.985,1.195-2.006,2.363-2.965,3.579
		c-0.964,1.222-1.935,2.438-2.87,3.68c-2.515,3.331-4.944,6.726-7.259,10.198c-0.617,0.926-1.212,1.862-1.814,2.797
		c-2.098,3.252-4.101,6.565-6.022,9.927c-0.884,1.548-1.728,3.118-2.573,4.689c-1.421,2.641-2.779,5.317-4.09,8.018
		c-0.776,1.602-1.576,3.19-2.315,4.812c-1.781,3.916-3.459,7.883-5.004,11.91c-0.643,1.678-1.2,3.391-1.802,5.087
		c-0.951,2.681-1.867,5.375-2.713,8.098c-0.63,2.026-1.23,4.065-1.798,6.113c-0.238,0.856-0.429,1.728-0.656,2.589l19.869,36.691
		c3.809,7.034,11.69,10.841,19.567,9.452l5.111-0.901l5.935,8.003C69.769,226.109,76.135,229.405,82.956,229.561z"/>
	<path style="fill:#9BF57D;" d="M135.203,265.881l3.14,17.804c1.014,5.761,4.683,10.707,9.901,13.35l24.865,12.599
		c5.218,2.644,8.885,7.59,9.902,13.35l0.835,4.733l10.078-10.707C171.512,303.706,151.511,286.472,135.203,265.881z"/>
</g>
<g>
	<polygon style="fill:#00C3F0;" points="304.83,139.809 304.83,139.809 309.363,139.011 	"/>
	<path style="fill:#00C3F0;" d="M262.011,168.709c-0.638,3.049-0.98,6.121-1.172,9.198l22.681-3.49
		c0.071-0.393,0.05-0.796,0.133-1.187l3.378-16.171c1.848-8.849,8.899-15.68,17.8-17.25l-0.224,0.04
		c-0.867,0.153-1.727,0.227-2.577,0.227c-7.018,0-13.237-5.032-14.497-12.181l-1.866-10.583c-0.904-5.128,0.993-10.205,4.732-13.537
		c0.895,0.082,1.77,0.239,2.685,0.239c1.705,0,3.42-0.15,5.097-0.442c7.793-1.378,14.547-5.684,19.061-12.133
		c4.52-6.459,6.249-14.29,4.87-22.051l-2.558-14.489c-0.311-1.773-0.779-3.482-1.382-5.121l4.286-6.122l4.739-7.753
		c-6.427-3.649-13.057-6.947-19.845-9.921l-3.397,5.558l-1.223,1.743c-3.74-1.707-7.837-2.744-12.18-2.744
		c-1.75,0-3.512,0.157-5.237,0.469c-7.67,1.356-14.423,5.662-18.937,12.112c-4.52,6.458-6.249,14.29-4.871,22.051l2.558,14.489
		c0.903,5.155,3.132,9.776,6.265,13.59c-5.664,7.873-8.206,17.857-6.435,27.9l1.868,10.585c0.633,3.589,1.767,6.977,3.325,10.099
		c-1.656,3.339-2.907,6.926-3.697,10.707L262.011,168.709z"/>
</g>
<g>
	<path style="fill:#B4FF87;" d="M310.328,170.294l18.438-34.04c-2.403,0.026-4.807,0.182-7.192,0.603l-16.743,2.952
		c-8.901,1.57-15.953,8.402-17.8,17.25l-3.378,16.171c-0.082,0.392-0.062,0.794-0.133,1.187L310.328,170.294z"/>
	<path style="fill:#B4FF87;" d="M327.194,35.901l-4.739,7.753l-5.329,7.611c-1.413,2.019-1.968,4.517-1.54,6.944l2.72,15.417
		c0.931,5.278-0.274,10.709-3.347,15.099c-1.799,2.569-4.172,4.685-6.931,6.179l-14.017,6.462
		c-6.079,2.802-9.507,9.351-8.344,15.943l1.866,10.583c1.413,8.016,9.058,13.368,17.075,11.956l12.453-2.195
		c5.678-1.001,10.25-5.221,11.703-10.799l4.987-19.147l11.587-2.042l21.886-40.405C355.05,53.963,341.623,44.093,327.194,35.901z"/>
</g>
<path style="fill:#59D8FF;" d="M500.658,253.11c-8.418-47.74-32.097-88.942-65.111-119.53l-56.895,105.038l-95.825,14.743
	L275.456,371.3L179.68,473.062c42.719,25.846,94.597,36.966,147.629,27.615C443.542,480.183,521.153,369.343,500.658,253.11z"/>
<path style="fill:#00C3F0;" d="M481.87,384.568c-21.971,13.298-46.69,22.881-73.5,27.609c-25.403,4.479-50.548,4.271-74.548-0.001
	c0.325-1.572,0.73-3.125,0.883-4.737l0.845-8.907c11.595-4.124,19.871-14.749,20.762-27.364l1.305-18.493
	c1.087-15.407-6.096-30.477-18.746-39.332l-3.77-2.641c-7.473-5.232-16.242-7.997-25.362-7.997c-2.565,0-5.147,0.226-7.678,0.672
	l-0.264,0.046l-21.173-14.826l-5.169,82.702L179.68,473.061c42.719,25.846,94.597,36.966,147.629,27.616
	c4.274-0.755,8.476-1.675,12.64-2.67c0.206-0.049,0.411-0.104,0.618-0.154c3.936-0.953,7.819-2.01,11.654-3.17
	c0.277-0.084,0.557-0.162,0.833-0.248c7.934-2.437,15.642-5.305,23.104-8.585c0.525-0.23,1.042-0.472,1.564-0.706
	c3.173-1.425,6.301-2.921,9.381-4.49c0.558-0.283,1.119-0.558,1.674-0.846c3.491-1.815,6.941-3.689,10.306-5.682
	c-0.004-0.006-0.01-0.013-0.014-0.019C435.03,452.795,463.673,421.452,481.87,384.568z"/>
<path style="fill:#B4FF87;" d="M334.26,369.61l1.305-18.492c0.547-7.747-3.01-15.211-9.373-19.666l-3.772-2.642
	c-4.803-3.362-10.747-4.68-16.519-3.662l-3.271,0.577c-3.852,0.679-7.812-0.2-11.014-2.441l-12.609-8.829l-3.553,56.846
	l-23.243,24.694l3.485,19.769c1.714,9.721,5.364,18.997,10.732,27.28l14.624,22.565c1.926,2.972,5.417,4.536,8.917,3.995
	l0.058-0.009c4.982-0.77,8.357-5.483,7.482-10.445l-4.802-27.241l13.251-12.661c3.844-3.672,6.235-8.605,6.739-13.898l1.77-18.654
	c0.587-3.956,3.638-7.092,7.578-7.787l4.562-0.804C330.803,377.366,333.959,373.863,334.26,369.61z"/>
<path style="fill:#9BF57D;" d="M252.213,395.995l3.485,19.769c1.714,9.721,5.364,18.997,10.732,27.28l14.624,22.565
	c1.926,2.972,5.417,4.536,8.917,3.995l0.058-0.009c4.982-0.77,8.357-5.483,7.482-10.445l-4.802-27.241l13.251-12.661
	c3.396-3.243,5.571-7.491,6.4-12.079c-17.681-5.083-34.473-12.523-50.123-21.822L252.213,395.995z"/>
<g>
	<path style="fill:#00C3F0;" d="M478.158,391.705l-0.457-0.03c-0.496,0.033-0.991,0.049-1.485,0.049
		c-7.444,0-14.511-3.731-18.68-10.103l-16.043-24.516c-4.371-6.68-7.339-14.18-8.726-22.043l-4.298-24.37
		c-1.891-10.726-11.218-18.272-21.745-18.272c-1.274,0-2.567,0.111-3.865,0.34l-0.544,0.095c-2.452,0.433-4.925,0.647-7.39,0.647
		c-6.65,0-13.244-1.558-19.236-4.595l-1.23-0.623c-11.95-6.055-20.351-17.383-22.679-30.575c-0.874-4.962-0.768-10.026,0.129-14.978
		l-22.685,3.491c-0.326,5.106-0.113,10.232,0.784,15.325c3.515,19.939,16.396,37.307,34.456,46.457l1.233,0.625
		c9.014,4.566,19.121,6.98,29.226,6.98c3.753,0,7.531-0.33,11.228-0.982l0.544-0.095l4.298,24.37
		c1.917,10.87,5.953,21.067,11.999,30.307l16.043,24.516c6.212,9.494,15.647,16.093,26.361,18.769
		C470.053,405.825,474.283,398.867,478.158,391.705z"/>
	<path style="fill:#00C3F0;" d="M478.441,197.123l2.178,0.212l-11.423-23.914l-1.395,0.527l-11.448,2.019
		c-1.696,0.298-3.407,0.447-5.118,0.447c-2.837,0-5.668-0.409-8.404-1.224l-6.575-1.956c-2.737-0.814-5.566-1.224-8.402-1.224
		c-1.712,0-3.423,0.15-5.121,0.448l-9.115,1.607l-16.548,30.551c0.19-0.002,0.378-0.049,0.568-0.049
		c5.386,0,10.75,0.984,15.819,2.927l15.625,5.986c2.569,0.984,5.248,1.464,7.905,1.464c5.59,0,11.088-2.123,15.274-6.123
		l4.256-4.066c3.156-3.015,7.134-5.028,11.432-5.786L478.441,197.123z"/>
</g>
<g>
	<path style="fill:#B4FF87;" d="M478.158,391.705c22.127-40.909,31.167-89.269,22.465-138.631
		c-3.48-19.733-9.617-38.317-17.889-55.532l-4.292-0.418l-10.492,1.849c-4.298,0.759-8.276,2.771-11.432,5.786l-4.256,4.066
		c-6.177,5.902-15.202,7.716-23.18,4.659l-15.625-5.986c-5.25-2.011-10.817-2.933-16.396-2.86l-18.408,33.982l-26.74,4.114
		c-0.898,4.951-1.004,10.016-0.129,14.978c2.328,13.192,10.729,24.52,22.679,30.575l1.23,0.623
		c8.216,4.162,17.557,5.547,26.626,3.948l0.544-0.095c12.024-2.121,23.49,5.908,25.609,17.932l4.298,24.37
		c1.386,7.862,4.354,15.362,8.726,22.043l16.043,24.516c4.445,6.794,12.184,10.586,20.164,10.054L478.158,391.705z"/>
	<path style="fill:#B4FF87;" d="M469.195,173.421c-9.6-14.704-20.942-28.046-33.652-39.833l-21.926,40.479l9.115-1.607
		c4.507-0.795,9.137-0.53,13.522,0.776l6.575,1.956c4.386,1.305,9.016,1.57,13.522,0.776l11.448-2.019L469.195,173.421z"/>
</g>
<path d="M140.73,109.447c1.739,0,3.492-0.564,4.963-1.726l11.14-8.798c3.474-2.744,4.067-7.785,1.322-11.259
	c-2.744-3.474-7.784-4.066-11.259-1.322l-11.14,8.798c-3.474,2.744-4.067,7.785-1.322,11.259
	C136.016,108.401,138.362,109.447,140.73,109.447z"/>
<path d="M285.274,75.943c0.686,3.889,4.068,6.625,7.884,6.625c0.462,0,0.931-0.041,1.402-0.123c4.36-0.77,7.271-4.926,6.501-9.287
	l-2.561-14.518c-0.77-4.36-4.925-7.271-9.287-6.501c-4.36,0.77-7.271,4.926-6.501,9.287L285.274,75.943z"/>
<path d="M508.573,251.67c-8.469-48.032-31.827-90.919-67.546-124.025c-1.817-1.684-4.312-2.437-6.754-2.03
	c-2.444,0.403-4.564,1.913-5.744,4.091l-55.031,101.596l-91.892,14.138c-3.724,0.573-6.546,3.662-6.781,7.423l-7.191,115.051
	l-93.826,99.69c-1.659,1.762-2.433,4.181-2.104,6.579c0.328,2.398,1.722,4.52,3.794,5.774
	c34.833,21.064,74.518,32.004,114.705,32.003c12.818,0,25.693-1.114,38.469-3.367c58.34-10.286,109.181-42.676,143.161-91.202
	S518.859,310.01,508.573,251.67z M418.839,181.258l1.124-0.198l1.947,11.043c0.686,3.889,4.068,6.625,7.884,6.625
	c0.462,0,0.931-0.041,1.402-0.123c4.36-0.77,7.271-4.926,6.501-9.287l-1.365-7.741l4.252,1.264c3.468,1.031,7.09,1.551,10.711,1.551
	c2.175,0,4.351-0.187,6.491-0.564l7.766-1.369c1.611,2.617,3.159,5.272,4.649,7.959l-3.6,0.635
	c-5.877,1.037-11.264,3.763-15.58,7.886l-4.257,4.068c-3.919,3.743-9.723,4.908-14.781,2.97l-15.629-5.988
	c-2.146-0.822-4.34-1.491-6.567-2.022L418.839,181.258z M437.58,146.658c6.561,6.714,12.607,13.815,18.127,21.256l-0.702,0.124
	c-3.264,0.577-6.671,0.382-9.849-0.564l-6.577-1.957c-3.361-0.999-6.869-1.51-10.378-1.542L437.58,146.658z M281.292,376.795
	c1.281-1.361,2.047-3.127,2.163-4.993l2.661-42.574l0.901,0.631c4.979,3.486,11.018,4.827,17.006,3.77l3.271-0.577
	c3.711-0.656,7.451,0.175,10.535,2.335l3.774,2.643c4.033,2.824,6.323,7.628,5.977,12.539l-1.305,18.498
	c-0.042,0.586-0.475,1.067-1.053,1.168l-4.563,0.805c-7.348,1.295-13.022,7.126-14.117,14.508c-0.02,0.139-0.037,0.279-0.05,0.419
	l-1.771,18.659c-0.32,3.373-1.846,6.521-4.297,8.862l-13.256,12.664c-1.938,1.851-2.823,4.549-2.358,7.188l4.804,27.25
	c0.047,0.268-0.009,0.516-0.168,0.739s-0.376,0.355-0.702,0.405c-0.38,0.062-0.76-0.111-0.969-0.435l-14.629-22.571
	c-4.812-7.426-8.031-15.609-9.567-24.32l-2.791-15.828L281.292,376.795z M325.89,492.803c-45.733,8.063-92.73,0.388-133.44-21.615
	l54.629-58.043l0.713,4.043c1.911,10.839,5.916,21.019,11.901,30.256l14.628,22.571c3.158,4.875,8.565,7.754,14.302,7.753
	c0.87,0,1.749-0.066,2.627-0.202c4.558-0.704,8.547-3.157,11.232-6.907c2.685-3.749,3.723-8.315,2.922-12.856l-4.059-23.024
	l10.155-9.701c5.237-5.003,8.499-11.73,9.182-18.94l1.742-18.351c0.118-0.491,0.515-0.87,1.021-0.959l4.563-0.805
	c7.837-1.382,13.701-7.891,14.261-15.829l1.305-18.498c0.741-10.496-4.153-20.766-12.773-26.801l-3.774-2.643
	c-6.591-4.616-14.586-6.389-22.513-4.991l-3.272,0.577c-1.769,0.313-3.555-0.083-5.027-1.114l-8.924-6.249l3.136-50.172
	l52.755-8.116c0.087,2.31,0.321,4.615,0.725,6.904c2.75,15.598,12.827,29.183,26.954,36.341l1.231,0.624
	c9.701,4.915,20.941,6.581,31.652,4.693l0.54-0.095c7.658-1.351,14.982,3.78,16.331,11.435l4.298,24.376
	c1.584,8.984,4.921,17.411,9.916,25.045l16.046,24.523c3.571,5.455,8.744,9.512,14.649,11.752c-2.166,3.52-4.43,6.994-6.821,10.408
	C427.178,453.212,380.012,483.26,325.89,492.803z M473.57,383.474c-3.758-0.722-7.133-2.936-9.282-6.219l-16.046-24.522
	c-3.801-5.808-6.338-12.217-7.542-19.051l-4.298-24.376c-2.886-16.362-18.544-27.326-34.907-24.44l-0.54,0.095
	c-7.317,1.291-14.993,0.152-21.617-3.205l-1.232-0.624c-9.651-4.89-16.534-14.17-18.413-24.825c-0.385-2.18-0.532-4.382-0.495-6.584
	l20.673-3.181c2.477-0.38,4.635-1.9,5.829-4.104l16.046-29.624c3.035,0.344,6.014,1.047,8.873,2.143l15.629,5.988
	c3.473,1.331,7.106,1.977,10.72,1.977c7.642,0,15.185-2.893,20.872-8.326l4.257-4.067c2.019-1.929,4.54-3.205,7.29-3.689
	l8.314-1.466c6.982,15.49,12.059,31.93,15.083,49.08C500.641,299.01,493.813,343.884,473.57,383.474z"/>
<path d="M111.32,412.787c2.153,0,4.281-0.866,5.84-2.522l95.808-101.796c1.281-1.362,2.047-3.127,2.163-4.993l6.97-111.498
	l89.446-13.761c2.477-0.38,4.635-1.9,5.829-4.104l56.926-105.095c1.743-3.218,1.085-7.209-1.6-9.697
	c-24.585-22.789-54.48-39.98-86.45-49.718C252.716-0.613,218.086-2.683,183.327,3.445C124.987,13.732,74.145,46.122,40.166,94.648
	S-6.86,202.028,3.428,260.368c11.104,62.97,48.919,118.104,103.749,151.262C108.463,412.409,109.896,412.787,111.32,412.787z
	 M187.349,312.298c-2.547-4.103-6.183-7.51-10.57-9.733l-24.872-12.601c-2.953-1.496-5.059-4.336-5.634-7.595l-3.002-17.025
	l3.274-22.071l25.041-4.415c7.585-1.339,15.24,0.359,21.55,4.778l9.269,6.491l-3.092,49.463L187.349,312.298z M305.176,162.976
	l-11.477,1.766l1.255-6.003c1.185-5.675,5.641-9.993,11.353-11l5.207-0.918l2.668-0.47L305.176,162.976z M340.107,98.488
	l-7.659,1.35c-3.088,0.545-5.575,2.84-6.366,5.874l-4.988,19.153c-0.662,2.538-2.756,4.472-5.34,4.928l-4.32,0.762l-8.139,1.435
	c-3.656,0.643-7.148-1.804-7.793-5.455l-1.867-10.587c-0.531-3.007,1.036-5.998,3.808-7.276l14.021-6.464
	c0.156-0.072,0.31-0.149,0.461-0.231c3.835-2.077,7.183-5.062,9.682-8.632c4.325-6.177,5.986-13.668,4.676-21.094l-2.719-15.423
	c-0.059-0.331,0.019-0.679,0.238-0.993l6.184-8.939c4.442,2.747,8.778,5.664,13.002,8.736l-4.419,4.045
	c-3.266,2.989-3.49,8.06-0.5,11.325c1.581,1.727,3.744,2.604,5.915,2.604c1.933,0,3.872-0.695,5.41-2.103l6.343-5.807
	c0.485,0.415,0.979,0.82,1.459,1.239L340.107,98.488z M186.11,19.234c12.072-2.129,24.123-3.191,36.112-3.191
	c20.039,0,39.9,2.97,59.359,8.897c11.839,3.606,23.367,8.323,34.402,14.023l-5.338,7.717c-2.652,3.788-3.671,8.381-2.869,12.935
	l2.719,15.423c0.566,3.207-0.152,6.445-2.021,9.115c-1.036,1.48-2.41,2.728-3.986,3.619l-13.758,6.342
	c-9.38,4.324-14.678,14.449-12.884,24.62l1.867,10.586c0.856,4.854,3.203,9.077,6.483,12.287c-3.401,3.838-5.833,8.571-6.938,13.856
	l-2.483,11.885l-63.494,9.769c-3.724,0.573-6.546,3.662-6.781,7.423l-2.927,46.838l-1.245-0.872
	c-9.818-6.876-21.726-9.514-33.529-7.433l-33.869,5.972c-1.769,0.314-3.555-0.083-5.028-1.115l-2.107-1.475
	c-3.693-2.585-8.026-4.007-12.534-4.111l-4.978-0.113l-0.54-3.06c-1.35-7.656,3.78-14.982,11.435-16.331l6.624-1.168l1.168,6.624
	c0.686,3.889,4.068,6.625,7.884,6.625c0.462,0,0.931-0.041,1.402-0.123c4.36-0.77,7.271-4.926,6.501-9.287l-1.957-11.093
	l46.047-71.851l10.663-1.88c5.599-0.988,10.178-4.958,11.95-10.363l1.401-4.276c2.487-7.59-1.16-15.716-8.484-18.902l-15.993-6.958
	l18.432-8.22c3.359-1.498,5.268-5.091,4.63-8.713l-1.614-9.153c-0.768-4.36-4.924-7.269-9.286-6.501l-52.708,9.294
	c-0.863,0.153-1.694,0.445-2.461,0.866l-24.319,13.333l-0.229-1.296c-0.37-2.094-1.555-3.956-3.296-5.174
	c-1.742-1.219-3.896-1.697-5.99-1.329l-8.803,1.553c-9.865,1.74-18.461,7.216-24.206,15.422l-3.476,4.963l-4.239-2.968
	C100.304,50.288,140.073,27.352,186.11,19.234z M60.371,94.512l6.022,4.216c6.95,4.866,16.564,3.171,21.43-3.779l3.846-5.491
	c3.289-4.697,8.21-7.832,13.858-8.828l0.908-0.16l2.059,11.674c0.686,3.889,4.068,6.625,7.884,6.625
	c0.462,0,0.931-0.041,1.402-0.123c4.36-0.77,7.271-4.926,6.501-9.287l-0.282-1.6l27.928-15.312l24.467-4.315
	c-4.166,2.601-6.666,7.089-6.644,12.135c0.027,5.743,3.314,10.733,8.579,13.023l19.117,8.316l-1.098,3.353l-10.57,1.864
	c-4.049,0.714-7.576,2.962-9.932,6.328c-0.063,0.089-0.123,0.18-0.182,0.271l-45.896,71.617l-11.373,2.005
	c-16.328,2.879-27.279,18.481-24.455,34.806l-10.782-0.247c-4.381-0.1-8.39-2.176-11-5.696l-5.938-8.006
	c-1.808-2.439-4.841-3.646-7.83-3.119l-5.112,0.901c-4.492,0.793-8.963-1.369-11.133-5.377L23.741,166.32
	C31.14,140.09,43.679,115.699,60.371,94.512z M19.216,257.585c-4.03-22.856-4.098-45.509-0.706-67.258l9.54,17.618
	c5.46,10.086,16.721,15.521,28.014,13.532l0.233-0.042l2.986,4.027c5.579,7.521,14.149,11.958,23.511,12.172l32.102,0.734
	c1.333,0.031,2.613,0.45,3.707,1.215l2.107,1.475c2.85,1.997,6.055,3.263,9.391,3.805l-2.879,19.416
	c-0.126,0.852-0.114,1.719,0.035,2.567l3.228,18.305c1.447,8.203,6.746,15.348,14.176,19.112l24.872,12.601
	c2.953,1.496,5.059,4.336,5.634,7.595l0.116,0.658l-65.284,69.365C62.085,363.427,29.142,313.882,19.216,257.585z"/>
<path d="M148.968,454.353c-3.797-2.279-8.72-1.046-10.998,2.749l-25.651,42.752c-2.278,3.796-1.046,8.719,2.749,10.998
	c1.291,0.775,2.714,1.143,4.117,1.143c2.723,0,5.378-1.388,6.881-3.894l25.651-42.752
	C153.995,461.554,152.764,456.63,148.968,454.353z"/>
<path d="M188.13,375.724v17.101c0,4.427,3.589,8.016,8.016,8.016c4.427,0,8.016-3.589,8.016-8.016v-17.101
	c0-4.427-3.589-8.016-8.016-8.016C191.719,367.708,188.13,371.296,188.13,375.724z"/>
<path d="M255.464,238.918v-17.101c0-4.427-3.589-8.016-8.016-8.016s-8.016,3.589-8.016,8.016v17.101
	c0,4.427,3.589,8.016,8.016,8.016S255.464,243.345,255.464,238.918z"/>
<path d="M341.502,188.15c-4.427,0-8.016,3.589-8.016,8.016s3.589,8.016,8.016,8.016h17.101c4.427,0,8.016-3.589,8.016-8.016
	s-3.589-8.016-8.016-8.016H341.502z"/>
<path d="M380.998,109.437c1.058,0.47,2.163,0.693,3.251,0.693c3.072,0,6.002-1.775,7.33-4.763l34.201-76.953
	c1.798-4.045-0.024-8.782-4.07-10.58c-4.048-1.799-8.782,0.025-10.58,4.07l-34.201,76.953
	C375.13,102.902,376.953,107.639,380.998,109.437z"/>
<path d="M139.627,412.389l-59.852,51.302c-3.361,2.881-3.75,7.941-0.869,11.302c1.585,1.849,3.831,2.799,6.09,2.799
	c1.847,0,3.701-0.634,5.213-1.93l59.852-51.302c3.361-2.882,3.75-7.941,0.869-11.303
	C148.049,409.897,142.987,409.508,139.627,412.389z"/>
<path d="M387.135,141.982c1.565,1.565,3.617,2.348,5.668,2.348c2.051,0,4.103-0.782,5.668-2.348l51.302-51.302
	c3.13-3.13,3.13-8.206,0-11.336c-3.13-3.131-8.206-3.131-11.336,0l-51.302,51.302C384.005,133.776,384.005,138.851,387.135,141.982z
	"/>
<circle cx="238.897" cy="324.423" r="8.016"/>
<circle cx="290.199" cy="204.718" r="8.016"/>
</svg>